# MagicaVoxel @ Ephtracy

# group
o 

# material
mtllib StreetBorder1.mtl
usemtl palette

# normals
vn -1 0 0
vn 1 0 0
vn 0 0 1
vn 0 0 -1
vn 0 -1 0
vn 0 1 0

# texcoords
vt 0.958984 0.5
vt 0.986328 0.5

# verts
v -18.9 0.3 18.9
v -18.9 0.3 6.3
v -18.9 0.9 18.9
v -18.9 0.9 6.3
v -18.5 0.8 18.9
v -18.5 0.8 6.7
v -18.5 0.9 18.9
v -18.5 0.9 6.7
v -6.3 0.3 18.9
v -6.3 0.3 6.7
v -6.3 0.3 6.3
v -6.3 0.8 18.9
v -6.3 0.8 6.7
v -6.3 0.9 6.7
v -6.3 0.9 6.3
v -18.9 0.3 18.9
v -18.9 0.9 18.9
v -18.5 0.3 18.9
v -18.5 0.8 18.9
v -18.5 0.9 18.9
v -6.3 0.3 18.9
v -6.3 0.8 18.9
v -18.5 0.8 6.7
v -18.5 0.9 6.7
v -6.3 0.8 6.7
v -6.3 0.9 6.7
v -18.9 0.3 6.3
v -18.9 0.9 6.3
v -6.3 0.3 6.3
v -6.3 0.9 6.3
v -18.9 0.3 18.9
v -18.5 0.3 18.9
v -6.3 0.3 18.9
v -18.8 0.3 18.8
v -18.5 0.3 18.8
v -6.4 0.3 6.7
v -6.3 0.3 6.7
v -18.8 0.3 6.4
v -6.4 0.3 6.4
v -18.9 0.3 6.3
v -6.3 0.3 6.3
v -18.5 0.8 18.9
v -6.3 0.8 18.9
v -18.5 0.8 6.7
v -6.3 0.8 6.7
v -18.9 0.9 18.9
v -18.5 0.9 18.9
v -18.5 0.9 6.7
v -6.3 0.9 6.7
v -18.9 0.9 6.3
v -6.3 0.9 6.3

# faces
f 3/2/1 2/2/1 1/2/1
f 4/2/1 2/2/1 3/2/1
f 5/2/2 6/2/2 7/2/2
f 7/2/2 6/2/2 8/2/2
f 9/1/2 10/1/2 12/1/2
f 10/2/2 11/2/2 13/2/2
f 12/1/2 10/1/2 13/1/2
f 13/2/2 11/2/2 14/2/2
f 14/2/2 11/2/2 15/2/2
f 18/2/3 17/2/3 16/2/3
f 19/2/3 17/2/3 18/2/3
f 20/2/3 17/2/3 19/2/3
f 21/1/3 19/1/3 18/1/3
f 22/1/3 19/1/3 21/1/3
f 25/2/3 24/2/3 23/2/3
f 26/2/3 24/2/3 25/2/3
f 27/2/4 28/2/4 29/2/4
f 29/2/4 28/2/4 30/2/4
f 34/2/5 32/2/5 31/2/5
f 35/1/5 33/1/5 32/1/5
f 35/2/5 32/2/5 34/2/5
f 36/1/5 35/1/5 34/1/5
f 36/1/5 33/1/5 35/1/5
f 37/1/5 33/1/5 36/1/5
f 38/2/5 34/2/5 31/2/5
f 38/1/5 36/1/5 34/1/5
f 39/2/5 37/2/5 36/2/5
f 39/1/5 36/1/5 38/1/5
f 40/2/5 38/2/5 31/2/5
f 40/2/5 39/2/5 38/2/5
f 41/2/5 37/2/5 39/2/5
f 41/2/5 39/2/5 40/2/5
f 42/1/6 43/1/6 44/1/6
f 44/1/6 43/1/6 45/1/6
f 46/2/6 47/2/6 48/2/6
f 46/2/6 48/2/6 50/2/6
f 48/2/6 49/2/6 50/2/6
f 50/2/6 49/2/6 51/2/6
