# MagicaVoxel @ Ephtracy

# group
o 

# material
mtllib Trash.mtl
usemtl palette

# normals
vn -1 0 0
vn 1 0 0
vn 0 0 1
vn 0 0 -1
vn 0 -1 0
vn 0 1 0

# texcoords
vt 0.689453 0.5
vt 0.892578 0.5

# verts
v 5.3 6.6 5.1
v 5.3 6.6 4.6
v 5.3 7.2 4.9
v 5.3 7.2 4.8
v 5.3 7.4 4.8
v 5.3 7.4 4.6
v 5.3 7.5 5
v 5.3 7.5 4.9
v 5.3 7.6 5.1
v 5.3 7.6 5
v 5.3 7.7 5.1
v 5.3 7.7 4.6
v 5.4 6.6 5.2
v 5.4 6.6 5.1
v 5.4 6.6 4.6
v 5.4 6.6 4.5
v 5.4 7.4 4.6
v 5.4 7.6 5.2
v 5.4 7.6 5.1
v 5.4 7.6 4.6
v 5.4 7.6 4.5
v 5.4 7.7 5.2
v 5.4 7.7 5.1
v 5.4 7.7 4.6
v 5.4 7.7 4.5
v 5.5 6.6 5.3
v 5.5 6.6 5.2
v 5.5 6.6 4.5
v 5.5 6.6 4.4
v 5.5 7.2 5.3
v 5.5 7.2 5.2
v 5.5 7.6 5.2
v 5.5 7.6 4.5
v 5.5 7.6 4.4
v 5.5 7.7 5.3
v 5.5 7.7 5.2
v 5.5 7.7 4.5
v 5.5 7.7 4.4
v 6 6.6 5.3
v 6 6.6 5.2
v 6 6.6 4.5
v 6 6.6 4.4
v 6 7.2 5.2
v 6 7.3 4.5
v 6 7.3 4.4
v 6 7.4 5.3
v 6 7.4 5.2
v 6 7.4 4.5
v 6 7.7 5.3
v 6 7.7 5.2
v 6 7.7 4.5
v 6 7.7 4.4
v 6.1 6.6 5.2
v 6.1 6.6 5.1
v 6.1 6.6 4.6
v 6.1 6.6 4.5
v 6.1 7.1 4.6
v 6.1 7.2 5.2
v 6.1 7.2 5.1
v 6.1 7.4 4.6
v 6.1 7.4 4.5
v 6.1 7.5 5.1
v 6.1 7.7 5.2
v 6.1 7.7 5.1
v 6.1 7.7 4.6
v 6.1 7.7 4.5
v 6.2 6.6 5.1
v 6.2 6.6 4.6
v 6.2 7 4.8
v 6.2 7 4.7
v 6.2 7.1 4.7
v 6.2 7.1 4.6
v 6.2 7.2 4.8
v 6.2 7.2 4.7
v 6.2 7.3 4.8
v 6.2 7.3 4.7
v 6.2 7.5 5.1
v 6.2 7.5 5
v 6.2 7.5 4.9
v 6.2 7.5 4.8
v 6.2 7.6 5
v 6.2 7.6 4.9
v 6.2 7.7 5.1
v 6.2 7.7 4.6
v 5.5 6.6 5.3
v 5.5 7.2 5.3
v 5.5 7.7 5.3
v 5.6 7.2 5.3
v 5.6 7.3 5.3
v 5.7 7.3 5.3
v 5.7 7.6 5.3
v 5.9 7.4 5.3
v 5.9 7.6 5.3
v 6 6.6 5.3
v 6 7.4 5.3
v 6 7.7 5.3
v 5.4 6.6 5.2
v 5.4 7.6 5.2
v 5.4 7.7 5.2
v 5.5 6.6 5.2
v 5.5 7.2 5.2
v 5.5 7.6 5.2
v 5.5 7.7 5.2
v 6 6.6 5.2
v 6 7.2 5.2
v 6 7.4 5.2
v 6 7.7 5.2
v 6.1 6.6 5.2
v 6.1 7.2 5.2
v 6.1 7.7 5.2
v 5.3 6.6 5.1
v 5.3 7.6 5.1
v 5.3 7.7 5.1
v 5.4 6.6 5.1
v 5.4 7.6 5.1
v 5.4 7.7 5.1
v 6.1 6.6 5.1
v 6.1 7.2 5.1
v 6.1 7.5 5.1
v 6.1 7.7 5.1
v 6.2 6.6 5.1
v 6.2 7.5 5.1
v 6.2 7.7 5.1
v 5.3 6.6 4.6
v 5.3 7.4 4.6
v 5.3 7.7 4.6
v 5.4 6.6 4.6
v 5.4 7.4 4.6
v 5.4 7.6 4.6
v 5.4 7.7 4.6
v 6.1 6.6 4.6
v 6.1 7.1 4.6
v 6.1 7.4 4.6
v 6.1 7.7 4.6
v 6.2 6.6 4.6
v 6.2 7.1 4.6
v 6.2 7.7 4.6
v 5.4 6.6 4.5
v 5.4 7.6 4.5
v 5.4 7.7 4.5
v 5.5 6.6 4.5
v 5.5 7.6 4.5
v 5.5 7.7 4.5
v 6 6.6 4.5
v 6 7.3 4.5
v 6 7.4 4.5
v 6 7.7 4.5
v 6.1 6.6 4.5
v 6.1 7.4 4.5
v 6.1 7.7 4.5
v 5.5 6.6 4.4
v 5.5 7.6 4.4
v 5.5 7.7 4.4
v 5.7 7.3 4.4
v 5.7 7.6 4.4
v 5.8 7.2 4.4
v 5.8 7.3 4.4
v 5.9 7.2 4.4
v 5.9 7.3 4.4
v 6 6.6 4.4
v 6 7.3 4.4
v 6 7.7 4.4
v 5.5 6.6 5.3
v 6 6.6 5.3
v 5.4 6.6 5.2
v 5.5 6.6 5.2
v 6 6.6 5.2
v 6.1 6.6 5.2
v 5.3 6.6 5.1
v 5.4 6.6 5.1
v 6.1 6.6 5.1
v 6.2 6.6 5.1
v 5.3 6.6 4.6
v 5.4 6.6 4.6
v 6.1 6.6 4.6
v 6.2 6.6 4.6
v 5.4 6.6 4.5
v 5.5 6.6 4.5
v 6 6.6 4.5
v 6.1 6.6 4.5
v 5.5 6.6 4.4
v 6 6.6 4.4
v 5.5 7.7 5.3
v 6 7.7 5.3
v 5.4 7.7 5.2
v 5.5 7.7 5.2
v 6 7.7 5.2
v 6.1 7.7 5.2
v 5.3 7.7 5.1
v 5.4 7.7 5.1
v 6.1 7.7 5.1
v 6.2 7.7 5.1
v 5.3 7.7 4.6
v 5.4 7.7 4.6
v 6.1 7.7 4.6
v 6.2 7.7 4.6
v 5.4 7.7 4.5
v 5.5 7.7 4.5
v 6 7.7 4.5
v 6.1 7.7 4.5
v 5.5 7.7 4.4
v 6 7.7 4.4

# faces
f 3/2/1 2/2/1 1/2/1
f 4/2/1 2/2/1 3/2/1
f 5/1/1 4/1/1 3/1/1
f 5/2/1 2/2/1 4/2/1
f 6/2/1 2/2/1 5/2/1
f 7/2/1 3/2/1 1/2/1
f 8/1/1 5/1/1 3/1/1
f 8/2/1 3/2/1 7/2/1
f 8/1/1 6/1/1 5/1/1
f 9/2/1 7/2/1 1/2/1
f 10/1/1 8/1/1 7/1/1
f 10/2/1 7/2/1 9/2/1
f 11/1/1 10/1/1 9/1/1
f 12/1/1 6/1/1 8/1/1
f 12/1/1 10/1/1 11/1/1
f 12/1/1 8/1/1 10/1/1
f 17/2/1 16/2/1 15/2/1
f 18/2/1 14/2/1 13/2/1
f 19/2/1 14/2/1 18/2/1
f 20/2/1 16/2/1 17/2/1
f 21/2/1 16/2/1 20/2/1
f 22/1/1 19/1/1 18/1/1
f 23/1/1 19/1/1 22/1/1
f 24/1/1 21/1/1 20/1/1
f 25/1/1 21/1/1 24/1/1
f 30/2/1 27/2/1 26/2/1
f 31/2/1 27/2/1 30/2/1
f 32/1/1 31/1/1 30/1/1
f 33/2/1 29/2/1 28/2/1
f 34/2/1 29/2/1 33/2/1
f 35/1/1 32/1/1 30/1/1
f 36/1/1 32/1/1 35/1/1
f 37/1/1 34/1/1 33/1/1
f 38/1/1 34/1/1 37/1/1
f 39/2/2 40/2/2 43/2/2
f 41/2/2 42/2/2 44/2/2
f 44/2/2 42/2/2 45/2/2
f 39/2/2 43/2/2 46/2/2
f 46/2/2 43/2/2 47/2/2
f 44/1/2 45/1/2 48/1/2
f 46/1/2 47/1/2 49/1/2
f 49/1/2 47/1/2 50/1/2
f 48/1/2 45/1/2 51/1/2
f 51/1/2 45/1/2 52/1/2
f 55/2/2 56/2/2 57/2/2
f 53/2/2 54/2/2 58/2/2
f 58/2/2 54/2/2 59/2/2
f 57/2/2 56/2/2 60/2/2
f 60/2/2 56/2/2 61/2/2
f 58/1/2 59/1/2 62/1/2
f 58/1/2 62/1/2 63/1/2
f 63/1/2 62/1/2 64/1/2
f 60/1/2 61/1/2 65/1/2
f 65/1/2 61/1/2 66/1/2
f 67/2/2 68/2/2 69/2/2
f 69/2/2 68/2/2 70/2/2
f 69/1/2 70/1/2 71/1/2
f 70/2/2 68/2/2 71/2/2
f 71/2/2 68/2/2 72/2/2
f 67/2/2 69/2/2 73/2/2
f 69/1/2 71/1/2 73/1/2
f 71/1/2 72/1/2 73/1/2
f 73/1/2 72/1/2 74/1/2
f 67/2/2 73/2/2 75/2/2
f 73/2/2 74/2/2 75/2/2
f 74/1/2 72/1/2 76/1/2
f 75/2/2 74/2/2 76/2/2
f 67/2/2 75/2/2 77/2/2
f 77/2/2 75/2/2 78/2/2
f 78/2/2 75/2/2 79/2/2
f 75/1/2 76/1/2 80/1/2
f 79/2/2 75/2/2 80/2/2
f 78/2/2 79/2/2 81/2/2
f 77/1/2 78/1/2 81/1/2
f 79/1/2 80/1/2 82/1/2
f 81/2/2 79/2/2 82/2/2
f 77/1/2 81/1/2 83/1/2
f 81/1/2 82/1/2 83/1/2
f 76/1/2 72/1/2 84/1/2
f 83/1/2 82/1/2 84/1/2
f 80/1/2 76/1/2 84/1/2
f 82/1/2 80/1/2 84/1/2
f 88/2/3 86/2/3 85/2/3
f 88/1/3 87/1/3 86/1/3
f 89/1/3 87/1/3 88/1/3
f 90/2/3 89/2/3 88/2/3
f 90/1/3 87/1/3 89/1/3
f 91/1/3 87/1/3 90/1/3
f 92/2/3 91/2/3 90/2/3
f 93/1/3 87/1/3 91/1/3
f 93/2/3 91/2/3 92/2/3
f 94/2/3 88/2/3 85/2/3
f 94/2/3 90/2/3 88/2/3
f 94/2/3 92/2/3 90/2/3
f 95/1/3 93/1/3 92/1/3
f 95/2/3 92/2/3 94/2/3
f 96/1/3 87/1/3 93/1/3
f 96/1/3 93/1/3 95/1/3
f 100/2/3 98/2/3 97/2/3
f 101/2/3 98/2/3 100/2/3
f 102/1/3 99/1/3 98/1/3
f 102/2/3 98/2/3 101/2/3
f 103/1/3 99/1/3 102/1/3
f 108/2/3 105/2/3 104/2/3
f 109/1/3 107/1/3 106/1/3
f 109/2/3 105/2/3 108/2/3
f 109/1/3 106/1/3 105/1/3
f 110/1/3 107/1/3 109/1/3
f 114/2/3 112/2/3 111/2/3
f 115/1/3 113/1/3 112/1/3
f 115/2/3 112/2/3 114/2/3
f 116/1/3 113/1/3 115/1/3
f 121/2/3 118/2/3 117/2/3
f 121/2/3 119/2/3 118/2/3
f 122/1/3 120/1/3 119/1/3
f 122/2/3 119/2/3 121/2/3
f 123/1/3 120/1/3 122/1/3
f 124/2/4 125/2/4 127/2/4
f 125/1/4 126/1/4 128/1/4
f 127/2/4 125/2/4 128/2/4
f 128/1/4 126/1/4 129/1/4
f 129/1/4 126/1/4 130/1/4
f 131/2/4 132/2/4 135/2/4
f 133/1/4 134/1/4 136/1/4
f 135/2/4 132/2/4 136/2/4
f 132/1/4 133/1/4 136/1/4
f 136/1/4 134/1/4 137/1/4
f 138/2/4 139/2/4 141/2/4
f 139/1/4 140/1/4 142/1/4
f 141/2/4 139/2/4 142/2/4
f 142/1/4 140/1/4 143/1/4
f 144/2/4 145/2/4 148/2/4
f 145/2/4 146/2/4 148/2/4
f 146/1/4 147/1/4 149/1/4
f 148/2/4 146/2/4 149/2/4
f 149/1/4 147/1/4 150/1/4
f 151/2/4 152/2/4 154/2/4
f 152/1/4 153/1/4 155/1/4
f 154/2/4 152/2/4 155/2/4
f 151/2/4 154/2/4 156/2/4
f 154/1/4 155/1/4 157/1/4
f 156/2/4 154/2/4 157/2/4
f 151/2/4 156/2/4 158/2/4
f 156/1/4 157/1/4 158/1/4
f 157/1/4 155/1/4 159/1/4
f 158/1/4 157/1/4 159/1/4
f 151/2/4 158/2/4 160/2/4
f 158/2/4 159/2/4 160/2/4
f 159/1/4 155/1/4 161/1/4
f 160/2/4 159/2/4 161/2/4
f 155/1/4 153/1/4 162/1/4
f 161/1/4 155/1/4 162/1/4
f 166/2/5 164/2/5 163/2/5
f 167/2/5 164/2/5 166/2/5
f 170/2/5 166/2/5 165/2/5
f 170/2/5 168/2/5 167/2/5
f 170/2/5 167/2/5 166/2/5
f 171/2/5 168/2/5 170/2/5
f 173/2/5 170/2/5 169/2/5
f 173/2/5 172/2/5 171/2/5
f 173/2/5 171/2/5 170/2/5
f 174/2/5 172/2/5 173/2/5
f 175/2/5 172/2/5 174/2/5
f 176/2/5 172/2/5 175/2/5
f 177/2/5 175/2/5 174/2/5
f 178/2/5 175/2/5 177/2/5
f 179/2/5 175/2/5 178/2/5
f 180/2/5 175/2/5 179/2/5
f 181/2/5 179/2/5 178/2/5
f 182/2/5 179/2/5 181/2/5
f 183/1/6 184/1/6 186/1/6
f 186/1/6 184/1/6 187/1/6
f 185/1/6 186/1/6 190/1/6
f 187/1/6 188/1/6 190/1/6
f 186/1/6 187/1/6 190/1/6
f 190/1/6 188/1/6 191/1/6
f 189/1/6 190/1/6 193/1/6
f 191/1/6 192/1/6 193/1/6
f 190/1/6 191/1/6 193/1/6
f 193/1/6 192/1/6 194/1/6
f 194/1/6 192/1/6 195/1/6
f 195/1/6 192/1/6 196/1/6
f 194/1/6 195/1/6 197/1/6
f 197/1/6 195/1/6 198/1/6
f 198/1/6 195/1/6 199/1/6
f 199/1/6 195/1/6 200/1/6
f 198/1/6 199/1/6 201/1/6
f 201/1/6 199/1/6 202/1/6
